<?xml version="1.0" encoding="UTF-8"?>
<svg width="700pt" height="700pt" version="1.1" viewBox="0 0 700 700" xmlns="http://www.w3.org/2000/svg">
 <path d="m206.53 35c-56.121 0-101.53 45.48-101.53 101.6v286.86c0 56.117 45.41 101.55 101.53 101.55h286.87c56.117 0 101.6-45.43 101.6-101.55v-286.86c0-56.117-45.48-101.6-101.6-101.6zm-27.824 45.152c7.3125 0 14.672 2.8633 20.219 8.4102l32.797 32.762 32.812-32.762c11.102-11.098 29.301-11.098 40.398 0 11.098 11.094 11.098 29.34 0 40.434l-32.797 32.797 32.797 32.746c11.102 11.098 11.102 29.371 0 40.469-11.098 11.102-29.301 11.102-40.398 0l-32.812-32.797-32.797 32.797c-11.102 11.102-29.316 11.102-40.418 0-11.102-11.098-11.102-29.371 0-40.469l32.812-32.812-32.812-32.727c-11.098-11.094-11.098-29.34 0-40.434 5.5508-5.5547 12.887-8.4102 20.199-8.4102zm236.56 0c7.3125 0 14.656 2.8633 20.199 8.4102l32.812 32.762 32.797-32.762c11.102-11.098 29.316-11.098 40.418 0 11.094 11.094 11.094 29.34 0 40.434l-32.746 32.727 32.746 32.812c11.098 11.098 11.098 29.371 0 40.469-11.098 11.102-29.316 11.102-40.418 0l-32.797-32.797-32.812 32.797c-11.102 11.102-29.301 11.102-40.398 0-11.102-11.098-11.102-29.371 0-40.469l32.727-32.812-32.727-32.727c-11.098-11.094-11.098-29.34 0-40.434 5.5508-5.5547 12.887-8.4102 20.199-8.4102zm-65.949 251.82v0.015625c19.949-0.097656 39.926 3.6992 58.02 11.418 36.188 15.434 59.867 44.988 59.867 78.117 0 4.668-3.7852 8.4531-8.4531 8.4531s-8.4492-3.7852-8.4492-8.4531c0-25.039-18.09-49.098-49.629-62.547-31.539-13.453-71.094-13.277-102.4 0.44531-31.309 13.719-48.984 37.941-48.586 62.977 0.078125 2.4336-0.89844 4.7852-2.6797 6.4492s-4.1953 2.4766-6.6172 2.2305c-4.3242-0.43359-7.6172-4.0781-7.6055-8.4258-0.52344-33.129 22.73-62.941 58.688-78.699 17.98-7.8789 37.898-11.879 57.848-11.98z"/>
</svg>
